<?xml version="1.0" encoding="utf-8"?>
<!-- Generator: Adobe Illustrator 15.0.0, SVG Export Plug-In . SVG Version: 6.00 Build 0)  -->
<!DOCTYPE svg PUBLIC "-//W3C//DTD SVG 1.1//EN" "http://www.w3.org/Graphics/SVG/1.1/DTD/svg11.dtd">
<svg version="1.1" xmlns="http://www.w3.org/2000/svg" xmlns:xlink="http://www.w3.org/1999/xlink" x="0px" y="0px" width="735px"
	 height="852px" viewBox="0 0 735 852" style="enable-background:new 0 0 735 852;" xml:space="preserve">
<style type="text/css">
<![CDATA[
	.st0{display:inline;fill:#E6B35A;}
	.st1{fill:#E0002B;}
	.st2{display:inline;opacity:0.94;}
	.st3{display:inline;fill:#ED7D15;}
	.st4{display:inline;opacity:0.25;fill:url(#SVGID_3_);enable-background:new    ;}
	.st5{fill:#22373A;}
	.st6{clip-path:url(#SVGID_2_);}
	.st7{display:inline;fill:#FFFFFF;}
	.st8{fill:#FFFFFF;}
	.st9{fill:#CCCCCC;}
	.st10{display:inline;}
	.st11{fill:#6B97C7;}
	.st12{display:none;}
	.st13{display:inline;fill:#AC5D12;}
	.st14{fill:#456D4A;}
]]>
</style>
<g id="Ebene_2" class="st12">
	
		<image style="display:inline;overflow:visible;" width="1108" height="1280" xlink:href="vorlage.jpg"  transform="matrix(0.6634 0 0 0.6634 5.859375e-003 1.0063)">
	</image>
</g>
<g id="ramen_und_text">
	<polygon class="st9" points="735,636.5 735,212.2 367.5,0 0,212.2 0,636.5 367.5,848.7 	"/>
	<g>
		<path class="st5" d="M183.5,664c-2.6,0-4.5-0.7-5.8-2c-1.3-1.3-2.1-3-2.3-5.1H175c-0.8,2.6-2.3,4.5-4.4,6
			c-2.1,1.4-4.9,2.1-8.2,2.1c-4.3,0-7.7-1.1-10.3-3.4c-2.6-2.3-3.8-5.4-3.8-9.3c0-4.1,1.5-7.2,4.5-9.3s7.7-3.2,13.9-3.2h8.1v-3.3
			c0-5.7-3-8.6-9.1-8.6c-2.7,0-4.9,0.5-6.6,1.6c-1.7,1.1-3.1,2.5-4.2,4.2l-5.3-4.3c1.2-2.3,3.2-4.3,6-5.9c2.8-1.7,6.5-2.5,10.9-2.5
			c5.3,0,9.5,1.3,12.6,3.8c3,2.6,4.6,6.3,4.6,11.1V657h5.3v7H183.5z M164.9,658.5c2.9,0,5.3-0.6,7.1-1.9c1.8-1.3,2.8-3,2.8-5v-6.1
			h-7.9c-6.4,0-9.6,1.9-9.6,5.8v1.6c0,1.9,0.7,3.3,2,4.3C160.6,658,162.5,658.5,164.9,658.5z"/>
		<path class="st5" d="M199.1,664v-42.1h8.9v7.2h0.4c0.4-1.1,1-2.1,1.7-3.1c0.7-1,1.5-1.9,2.5-2.6s2.1-1.3,3.4-1.8
			c1.3-0.4,2.8-0.7,4.6-0.7c4.2,0,7.7,1.4,10.3,4.2c2.6,2.8,3.9,6.7,3.9,11.8V664h-8.9v-25.8c0-6.7-2.9-10-8.7-10
			c-1.1,0-2.3,0.2-3.3,0.4c-1.1,0.3-2.1,0.7-2.9,1.3c-0.9,0.6-1.6,1.4-2.1,2.3c-0.5,0.9-0.8,2-0.8,3.2V664H199.1z"/>
		<path class="st5" d="M268.3,664c-3.7,0-6.4-1-8.2-3c-1.7-2-2.6-4.5-2.6-7.7v-24.2h-13v-7.3h9.2c1.6,0,2.7-0.3,3.3-0.9
			c0.7-0.6,1-1.8,1-3.4V607h8.3v14.9h18v7.3h-18v27.6h18v7.3H268.3z"/>
		<path class="st5" d="M298.5,656.7h14.4v-27.6h-14.4v-7.3h23.3v34.8h13.5v7.3h-36.7V656.7z M317.3,614.2c-2.3,0-3.9-0.5-4.8-1.4
			c-0.9-0.9-1.3-2.1-1.3-3.4v-1.7c0-1.4,0.4-2.5,1.3-3.4c0.9-0.9,2.5-1.4,4.7-1.4c2.3,0,3.9,0.5,4.8,1.4c0.9,0.9,1.3,2.1,1.3,3.4
			v1.7c0,1.4-0.4,2.5-1.3,3.4C321.1,613.8,319.5,614.2,317.3,614.2z"/>
		<path class="st5" d="M365.2,665c-3.2,0-6-0.5-8.4-1.6c-2.5-1-4.6-2.5-6.3-4.4c-1.7-1.9-3-4.2-3.9-6.9c-0.9-2.7-1.3-5.8-1.3-9.1
			c0-3.4,0.4-6.4,1.3-9.1c0.9-2.7,2.2-5,3.9-6.9c1.7-1.9,3.8-3.4,6.3-4.4c2.5-1,5.3-1.6,8.4-1.6c4.4,0,7.8,0.9,10.5,2.7
			c2.6,1.8,4.6,4.2,5.9,7.1l-6.9,3.8c-0.8-2-1.9-3.5-3.5-4.7c-1.6-1.1-3.6-1.7-6-1.7c-3.4,0-6,1-7.8,3.1c-1.9,2.1-2.8,4.8-2.8,8.2
			v7.1c0,3.3,0.9,6,2.8,8.1c1.8,2.1,4.5,3.1,8,3.1c2.6,0,4.7-0.6,6.4-1.8c1.7-1.2,3-2.8,4-4.9l6.5,4c-1.4,2.9-3.4,5.3-6.2,7.2
			C373.2,664.1,369.6,665,365.2,665z"/>
		<path class="st5" d="M394.3,656.7h14v-45.9h-14v-7.3h22.9v53.1h14v7.3h-36.8V656.7z"/>
		<path class="st5" d="M470.3,656.8h-0.4c-0.4,1.1-1,2.1-1.7,3.1c-0.7,1-1.5,1.9-2.5,2.6c-1,0.7-2.1,1.3-3.4,1.8
			c-1.3,0.4-2.8,0.7-4.6,0.7c-4.2,0-7.7-1.4-10.3-4.2c-2.6-2.8-3.9-6.7-3.9-11.8v-27.1h8.9v25.8c0,6.7,2.9,10,8.7,10
			c1.1,0,2.3-0.1,3.3-0.4c1.1-0.3,2.1-0.7,2.9-1.3s1.6-1.3,2.1-2.2c0.5-0.9,0.8-2,0.8-3.2v-28.6h8.9V664h-8.9V656.8z"/>
		<path class="st5" d="M510.6,665c-4.6,0-8.5-0.7-11.8-2.2c-3.3-1.5-5.9-3.4-8-5.9l5.5-4.9c1.8,2,3.9,3.6,6.2,4.6
			c2.3,1.1,5,1.6,8.2,1.6c2.9,0,5.2-0.5,7-1.5c1.8-1,2.7-2.5,2.7-4.6c0-0.9-0.2-1.6-0.5-2.2c-0.3-0.6-0.8-1.1-1.4-1.5
			c-0.6-0.4-1.3-0.7-2.1-0.9c-0.8-0.2-1.6-0.4-2.5-0.5l-6.7-1.1c-1.6-0.2-3.3-0.6-5-1.1c-1.7-0.5-3.2-1.2-4.5-2.1
			c-1.3-0.9-2.4-2.1-3.3-3.5c-0.8-1.4-1.3-3.2-1.3-5.4c0-4.3,1.6-7.6,4.9-9.8c3.3-2.2,7.6-3.3,13-3.3c3.9,0,7.3,0.6,10.2,1.8
			s5.2,2.8,7.1,4.9l-5,5.2c-1.1-1.3-2.6-2.4-4.7-3.5c-2-1.1-4.7-1.6-8-1.6c-5.9,0-8.9,1.9-8.9,5.6c0,1.8,0.6,3,1.9,3.7
			c1.3,0.7,2.8,1.1,4.5,1.3l6.7,1.1c1.7,0.3,3.4,0.6,5,1.1c1.7,0.4,3.2,1.1,4.5,2c1.3,0.9,2.4,2.1,3.3,3.5c0.8,1.4,1.3,3.2,1.3,5.4
			c0,4.2-1.6,7.6-4.9,10C520.9,663.8,516.4,665,510.6,665z"/>
		<path class="st5" d="M562,664c-3.7,0-6.4-1-8.2-3c-1.7-2-2.6-4.5-2.6-7.7v-24.2h-13v-7.3h9.2c1.6,0,2.7-0.3,3.3-0.9
			c0.7-0.6,1-1.8,1-3.4V607h8.3v14.9h18v7.3h-18v27.6h18v7.3H562z"/>
	</g>
</g>
<g id="punkte">
	<g>
		<defs>
			<polygon id="SVGID_1_" points="735,636.5 735,212.2 367.5,0 0,212.2 0,636.5 367.5,848.7 			"/>
		</defs>
		<clipPath id="SVGID_2_">
			<use xlink:href="#SVGID_1_"  style="overflow:visible;"/>
		</clipPath>
		<g id="rotL_1_" class="st6">
			<g>
				<path class="st1" d="M362.1,401.5l-18-13l4.1-5.7l18,13L362.1,401.5z M332.7,380.4l-21.1-15.2l4.1-5.7l21.1,15.2L332.7,380.4z
					 M300.2,357l-21.1-15.2l4.1-5.7l21.1,15.2L300.2,357z M267.7,333.6l-21.1-15.2l4.1-5.7l21.1,15.2L267.7,333.6z M235.3,310.3
					l-21.1-15.2l4.1-5.7l21.1,15.2L235.3,310.3z M202.8,286.9l-21.1-15.2l4.1-5.7l21.1,15.2L202.8,286.9z M170.3,263.6l-21.1-15.2
					l4.1-5.7l21.1,15.2L170.3,263.6z M137.8,240.2L116.7,225l4.1-5.7l21.1,15.2L137.8,240.2z"/>
			</g>
			<g>
				<path class="st1" d="M673.6,452.1l-25.7-4.1l1.1-6.9l25.7,4.1L673.6,452.1z M634.1,445.7l-25.7-4.1l1.1-6.9l25.7,4.1
					L634.1,445.7z M594.6,439.3l-25.7-4.1l1.1-6.9l25.7,4.1L594.6,439.3z M555.1,432.9l-25.7-4.1l1.1-6.9l25.7,4.1L555.1,432.9z
					 M515.7,426.5l-25.7-4.1l1.1-6.9l25.7,4.1L515.7,426.5z M476.2,420.2l-25.7-4.1l1.1-6.9l25.7,4.1L476.2,420.2z M436.7,413.8
					l-25.7-4.1l1.1-6.9l25.7,4.1L436.7,413.8z M397.2,407.4l-25.7-4.1l1.1-6.9l25.7,4.1L397.2,407.4z"/>
			</g>
			<g>
				<path class="st1" d="M380.5,547.5l-3.5-25.8l6.9-0.9l3.5,25.8L380.5,547.5z M375.2,507.8l-3.5-25.8l6.9-0.9l3.5,25.8
					L375.2,507.8z M369.9,468.2l-3.5-25.8l6.9-0.9l3.5,25.8L369.9,468.2z M364.6,428.5l-3.5-25.8l6.9-0.9l3.5,25.8L364.6,428.5z"/>
			</g>
			<g>
				<path class="st1" d="M367.2,402.5l-3.3-0.4l0.8-7l3.3,0.4L367.2,402.5z M350,400.6l-25.8-2.9l0.8-7l25.8,2.9L350,400.6z
					 M310.2,396.2l-25.8-2.9l0.8-7l25.8,2.9L310.2,396.2z"/>
			</g>
			<g>
				<path class="st1" d="M364.2,400.1l-5.8-19.5l6.7-2l5.8,19.5L364.2,400.1z M354.4,367.1l-7.5-24.9l6.7-2l7.5,24.9L354.4,367.1z
					 M342.9,328.8l-7.5-24.9l6.7-2l7.5,24.9L342.9,328.8z M331.4,290.5l-7.5-24.9l6.7-2l7.5,24.9L331.4,290.5z M320,252.2l-7.5-24.9
					l6.7-2l7.5,24.9L320,252.2z"/>
			</g>
		</g>
		<g id="rot_1_" class="st6">
			<rect x="295" y="207" class="st1" width="43.6" height="43.6"/>
			<rect x="97" y="200.4" class="st1" width="43.6" height="43.6"/>
			<rect x="266.3" y="367.2" class="st1" width="43.6" height="43.6"/>
			<rect x="645.9" y="422.3" class="st1" width="43.6" height="43.6"/>
			<rect x="362.2" y="520.2" class="st1" width="43.6" height="43.6"/>
			<polygon class="st1" points="364.1,371.5 341.4,410.9 386.9,410.9 			"/>
		</g>
		<g id="grünL_1_" class="st6">
			<g>
				<path class="st14" d="M369.7,385.8l-17.1-4.7l1.9-6.8l17.1,4.7L369.7,385.8z M339.2,377.4l-25.1-6.9l1.9-6.8l25.1,6.9
					L339.2,377.4z M300.6,366.8l-25.1-6.9l1.9-6.8l25.1,6.9L300.6,366.8z M262,356.2l-25.1-6.9l1.9-6.8l25.1,6.9L262,356.2z
					 M223.5,345.6l-25.1-6.9l1.9-6.8l25.1,6.9L223.5,345.6z"/>
			</g>
			<g>
				<path class="st14" d="M377.5,383.8l-5.9-3.7l13.8-22l5.9,3.7L377.5,383.8z M398.8,349.9l-5.9-3.7l13.8-22l5.9,3.7L398.8,349.9z
					 M420.1,316l-5.9-3.7l13.8-22l5.9,3.7L420.1,316z M441.4,282.2l-5.9-3.7l13.8-22l5.9,3.7L441.4,282.2z M462.7,248.3l-5.9-3.7
					l13.8-22l5.9,3.7L462.7,248.3z"/>
			</g>
			<g>
				<path class="st14" d="M579.6,391.9l-26-0.2l0.1-7l26,0.2L579.6,391.9z M539.6,391.6l-26-0.2l0.1-7l26,0.2L539.6,391.6z
					 M499.6,391.3l-26-0.2l0.1-7l26,0.2L499.6,391.3z M459.6,390.9l-26-0.2l0.1-7l26,0.2L459.6,390.9z M419.6,390.6l-26-0.2l0.1-7
					l26,0.2L419.6,390.6z M379.6,390.3l-8.1-0.1l0.1-7l8.1,0.1L379.6,390.3z"/>
			</g>
			<g>
				<path class="st14" d="M375.2,448.4l-2.4-25.9l7-0.7l2.4,25.9L375.2,448.4z M371.4,408.6l-2.2-23.4l7-0.7l2.2,23.4L371.4,408.6z"
					/>
			</g>
			<g>
				<path class="st14" d="M173.3,505.4l-3.5-6l22.4-13.1l3.5,6L173.3,505.4z M207.9,485.3l-3.5-6l22.4-13.1l3.5,6L207.9,485.3z
					 M242.4,465.1l-3.5-6l22.4-13.1l3.5,6L242.4,465.1z M277,444.9l-3.5-6l22.4-13.1l3.5,6L277,444.9z M311.5,424.7l-3.5-6
					l22.4-13.1l3.5,6L311.5,424.7z M346,404.5l-3.5-6l22.4-13.1l3.5,6L346,404.5z"/>
			</g>
		</g>
		<g id="grün_1_" class="st6">
			<circle class="st14" cx="473.6" cy="224.4" r="26.5"/>
			<circle class="st14" cx="579.6" cy="388.4" r="26.5"/>
			<circle class="st14" cx="382.4" cy="446.3" r="26.5"/>
			<circle class="st14" cx="171.6" cy="502.4" r="26.5"/>
			<circle class="st14" cx="199.3" cy="335.4" r="26.5"/>
			<polygon class="st14" points="371.5,360.1 348.8,399.5 394.3,399.5 			"/>
		</g>
		<g id="blauL_1_" class="st6">
			<g>
				<path class="st11" d="M358.4,379.9L342,359.7l5.4-4.4l16.4,20.2L358.4,379.9z M333.2,348.8l-16.4-20.2l5.4-4.4l16.4,20.2
					L333.2,348.8z M308.1,317.8l-16.4-20.2l5.4-4.4l16.4,20.2L308.1,317.8z M282.9,286.7l-16.4-20.2l5.4-4.4l16.4,20.2L282.9,286.7z
					 M257.7,255.6l-16.4-20.2l5.4-4.4l16.4,20.2L257.7,255.6z M232.6,224.5l-16.4-20.2l5.4-4.4l16.4,20.2L232.6,224.5z M207.4,193.4
					L191,173.2l5.4-4.4l16.4,20.2L207.4,193.4z"/>
			</g>
			<g>
				<path class="st11" d="M611.9,395l-26-1.3l0.3-7l26,1.3L611.9,395z M571.9,393l-26-1.3l0.3-7l26,1.3L571.9,393z M532,391.1
					l-26-1.3l0.3-7l26,1.3L532,391.1z M492,389.1l-26-1.3l0.3-7l26,1.3L492,389.1z M452.1,387.2l-26-1.3l0.3-7l26,1.3L452.1,387.2z
					 M412.1,385.2l-26-1.3l0.3-7l26,1.3L412.1,385.2z M372.2,383.3l-4.8-0.2l0.3-7l4.8,0.2L372.2,383.3z"/>
			</g>
			<g>
				<path class="st11" d="M464.6,457.9l-20.2-16.4l4.4-5.4l20.2,16.4L464.6,457.9z M433.5,432.7l-20.2-16.4l4.4-5.4l20.2,16.4
					L433.5,432.7z M402.5,407.5l-20.2-16.4l4.4-5.4l20.2,16.4L402.5,407.5z M371.4,382.3l-6.1-4.9l4.4-5.4l6.1,4.9L371.4,382.3z"/>
			</g>
			<g>
				<path class="st11" d="M298.5,458.3l-5.3-4.6l17.2-19.5l5.3,4.6L298.5,458.3z M324.9,428.3l-5.3-4.6l17.2-19.5l5.3,4.6
					L324.9,428.3z M351.4,398.3l-5.3-4.6l17.2-19.5l5.3,4.6L351.4,398.3z"/>
			</g>
			<g>
				<path class="st11" d="M264,452.3l-4-5.8l21.4-14.8l4,5.8L264,452.3z M296.8,429.5l-4-5.8l21.4-14.8l4,5.8L296.8,429.5z
					 M329.7,406.7l-4-5.8l21.4-14.8l4,5.8L329.7,406.7z M362.6,383.9l-4-5.8l3.6-2.5l4,5.8L362.6,383.9z"/>
			</g>
		</g>
		<g id="blau_1_" class="st6">
			
				<rect x="590.3" y="369.7" transform="matrix(0.7071 -0.7071 0.7071 0.7071 -97.5475 547.4429)" class="st11" width="43.6" height="43.6"/>
			
				<rect x="443.6" y="430.7" transform="matrix(0.7071 -0.7071 0.7071 0.7071 -183.6572 461.5909)" class="st11" width="43.6" height="43.6"/>
			
				<rect x="273.5" y="433.8" transform="matrix(0.7071 -0.7071 0.7071 0.7071 -235.66 342.2134)" class="st11" width="43.6" height="43.6"/>
			
				<rect x="240.2" y="427.6" transform="matrix(0.7071 -0.7071 0.7071 0.7071 -241.0619 316.872)" class="st11" width="43.6" height="43.6"/>
			
				<rect x="173.6" y="149.1" transform="matrix(0.7071 -0.7071 0.7071 0.7071 -63.5715 188.2132)" class="st11" width="43.6" height="43.6"/>
			<polygon class="st11" points="364.1,351.8 341.4,391.2 386.9,391.2 			"/>
		</g>
	</g>
</g>
<g id="c">
</g>
<g id="Ebene_8">
	<path class="st5" d="M367.5,33.5L706,228.9v390.9L367.5,815.2L29,619.8V228.9L367.5,33.5 M367.5,0L0,212.2v424.4l367.5,212.2
		L735,636.5V212.2L367.5,0L367.5,0z"/>
</g>
<g id="Layer_1" class="st12">
	<title>dplyr</title>
	<path class="st3" d="M709,233.1L366.9,22.5l-341,210.6v394.4l341.5,197.2L709,627.5V233.1z"/>
	
		<linearGradient id="SVGID_3_" gradientUnits="userSpaceOnUse" x1="366.1406" y1="-959.3901" x2="367.4407" y2="-495.869" gradientTransform="matrix(1 0 0 1 0 837)">
		<stop  offset="0" style="stop-color:#FFFFFF;stop-opacity:0.83"/>
		<stop  offset="0.56" style="stop-color:#FFFFFF;stop-opacity:0.37"/>
		<stop  offset="1" style="stop-color:#FFFFFF;stop-opacity:0"/>
	</linearGradient>
	<path class="st4" d="M366.9,340.4c128.2,0,238.6-57,287.8-138.8L367.5,35.8l0,0L79.4,202.2C128.8,283.7,238.9,340.4,366.9,340.4z"
		/>
	<path class="st13" d="M734.9,637.4V213.1l-29.3-16.9L427.8,35.8L367.5,1l-60.3,34.8L29.4,196.2L0.1,213.1v424.2l29.3,16.9
		l281.3,162.4l56.9,32.8l56.9-32.8l281.3-162.4L734.9,637.4z M29.4,621.5V231l50-28.9L367.5,35.8l0,0l287.2,165.8l50.9,29.4v390.5
		L367.5,816.7L29.4,621.5z"/>
	<path class="st0" d="M367,633.9c0.3-0.3,0.6-0.6,0.9-0.9h-0.3C367.5,633.3,367.3,633.6,367,633.9z"/>
	<g class="st2">
		<path class="st8" d="M282.3,474v99.2c0,7.3,0.2,15.6,0.6,21.2h-12.6l-0.6-14.2h-0.3c-4.3,9.2-13.8,16.1-26.4,16.1
			c-18.7,0-33.1-16.8-33.1-41.7c-0.2-27.3,15.8-44.1,34.7-44.1c11.8,0,19.8,5.9,23.4,12.6h0.3v-49L282.3,474L282.3,474z
			 M268.2,545.7c0-2.1-0.2-4.2-0.6-6.3c-2.1-9.5-9.8-17.3-20.3-17.3c-14.6,0-23.2,13.6-23.2,31.7c0,16.6,7.7,30.4,22.9,30.4
			c9.4,0,18.1-6.6,20.6-17.8c0.5-2.1,0.7-4.3,0.6-6.4V545.7z"/>
		<path class="st8" d="M302.5,539.1c0-10.5-0.3-19-0.6-26.8h12.6l0.6,14.1h0.3c5.8-10,14.9-16,27.5-16c18.7,0,32.8,16.8,32.8,41.7
			c0,29.5-17,44.1-35.2,44.1c-10.2,0-19.2-4.8-23.8-12.9h-0.3V628h-13.9V539.1z M316.4,561c0,2.1,0.3,4.1,0.6,6.1
			c2.6,10.3,11,17.5,21.1,17.5c14.9,0,23.5-12.9,23.5-31.7c0-16.5-8.2-30.5-23-30.5c-9.6,0-18.6,7.3-21.3,18.5c-0.6,2-0.9,4-1,6.1
			v14H316.4z"/>
		<path class="st8" d="M390.3,474h14.1v120.4h-14.1V474z"/>
		<path class="st8" d="M430,512.3l17,48.5c1.8,5.4,3.7,11.9,5,16.8h0.3c1.4-4.9,3-11.2,5-17.1l15.4-48.2h14.9l-21.3,58.5
			c-10.1,28.2-17,42.6-26.6,51.4c-6.9,6.4-13.8,9-17.3,9.7l-3.5-12.5c4.5-1.6,8.7-4.1,12.3-7.3c5.2-4.6,9.2-10.2,11.8-16.6
			c0.6-1.1,1-2.3,1.1-3.6c-0.1-1.3-0.5-2.7-1-3.9l-28.6-75.6L430,512.3z"/>
		<path class="st8" d="M497,538c0-9.7-0.2-18-0.6-25.6h12.3l0.5,16.1h0.6c3.5-11,12-18,21.4-18c1.4,0,2.7,0.2,4,0.5v14.1
			c-1.6-0.4-3.2-0.5-4.8-0.5c-9.9,0-17,8-18.9,19.2c-0.4,2.3-0.6,4.7-0.6,7v43.8H497V538z"/>
	</g>
	<path class="st7" d="M365.5,797.3l4.5,4.5c1,1,1.9,1.9,2.7,2.9h0.1c-0.4-1.2-0.7-2.5-1-3.8l-1.4-6.3l1.6-0.9l4.7,4.3
		c1.1,1,2.1,2,2.9,2.9h0.1c-0.5-1.3-0.9-2.5-1.2-3.8l-1.6-6.1l1.9-1.1l2.7,12.3l-1.7,1l-4.5-4.1c-1-0.9-2-1.9-2.9-2.9l0,0
		c0.4,1.3,0.8,2.6,1.1,4l1.2,6l-1.7,1l-9.2-8.6L365.5,797.3z"/>
	<path class="st7" d="M381.7,787.9l4.5,4.5c1,1,1.9,1.9,2.7,2.9h0.1c-0.4-1.2-0.7-2.5-1-3.8l-1.4-6.3l1.6-0.9l4.7,4.3
		c1.1,1,2.1,2,2.9,2.9h0.1c-0.5-1.3-0.8-2.6-1.2-3.9l-1.6-6.1l1.9-1.1l2.7,12.4l-1.7,1l-4.5-4.1c-1-0.9-2-1.9-2.9-2.9l0,0
		c0.4,1.3,0.8,2.6,1.1,4l1.2,6l-1.7,1l-9.2-8.7L381.7,787.9z"/>
	<path class="st7" d="M397.9,778.5l4.5,4.5c1,1,1.9,1.9,2.7,2.9h0.1c-0.4-1.2-0.7-2.5-1-3.8l-1.4-6.3l1.6-0.9l4.7,4.3
		c1.1,1,2.1,2,2.9,2.9h0.1c-0.5-1.3-0.8-2.6-1.2-3.9l-1.6-6.1l1.9-1.1l2.7,12.4l-1.7,1l-4.5-4.1c-1-0.9-2-1.9-2.9-2.9l0,0
		c0.4,1.3,0.8,2.6,1.1,4l1.2,6l-1.7,1l-9.2-8.6L397.9,778.5z"/>
	<path class="st7" d="M417.1,779.7c-0.5-0.7-0.3-1.6,0.4-2.1c0,0,0.1,0,0.1-0.1c0.8-0.4,1.7-0.1,2.1,0.7c0.4,0.7,0.1,1.6-0.6,2.1
		C418.5,780.8,417.6,780.5,417.1,779.7C417.2,779.8,417.1,779.8,417.1,779.7z"/>
	<path class="st7" d="M418.5,770.8c-0.7-1.2-1.4-2.3-2-3.2l1.7-1l1.3,2h0.1c-0.4-1.5,0.2-3.2,1.6-4c0.2-0.1,0.4-0.2,0.6-0.2l1,1.8
		c-0.2,0.1-0.5,0.2-0.7,0.3c-1.3,0.8-1.8,2.5-1.1,3.9c0.1,0.3,0.3,0.6,0.4,0.9l3.2,5.6l-1.8,1.1L418.5,770.8z"/>
	<path class="st7" d="M428.4,772.1c1,0,2-0.2,3-0.7c1.4-0.8,1.6-1.9,1.1-2.7s-1.4-1.1-3.1-0.8c-2.3,0.4-3.8-0.1-4.5-1.3
		c-1-1.7-0.4-3.8,1.8-5.2c0.9-0.5,1.9-0.8,3-0.8l0.3,1.7c-0.9,0-1.7,0.2-2.5,0.6c-0.9,0.4-1.3,1.4-1,2.3c0,0,0,0.1,0.1,0.1
		c0.5,0.9,1.4,0.9,3,0.6c2.2-0.4,3.7,0,4.6,1.5c1.1,1.8,0.4,4-2.1,5.4c-1,0.6-2.2,1-3.4,1L428.4,772.1z"/>
	<path class="st7" d="M432.8,754.1l1.8,3l2.7-1.6l0.9,1.5l-2.7,1.6l3.3,5.6c0.8,1.3,1.5,1.8,2.6,1.2c0.4-0.2,0.7-0.5,1-0.8l0.9,1.4
		c-0.4,0.5-1,0.9-1.5,1.2c-0.7,0.5-1.7,0.6-2.5,0.4c-1-0.4-1.9-1.3-2.3-2.3l-3.3-5.7l-1.6,0.9l-0.8-1.5l1.6-0.9l-1.5-2.5
		L432.8,754.1z"/>
	<path class="st7" d="M452.6,756.8c0.6,1.1,1.2,2,1.7,2.8l-1.7,1l-1.1-1.6l0,0c0,1.7-0.9,3.2-2.3,4c-1.6,1-4.1,1.2-6.3-2.5l-3.6-6.1
		l1.9-1.1l3.3,5.8c1.2,2,2.5,3,4.3,2c1.1-0.7,1.7-1.9,1.5-3.2c-0.1-0.4-0.2-0.7-0.4-1.1l-3.7-6.4l1.9-1.1L452.6,756.8z"/>
	<path class="st7" d="M457.5,737.2l7.4,12.6c0.5,0.9,1.2,2,1.7,2.7l-1.7,1l-1.1-1.8l0,0c0.1,1.7-0.9,3.3-2.4,4.1
		c-2.5,1.5-5.7,0.5-7.6-2.7c-2-3.5-1.1-6.9,1.4-8.3c1.2-0.8,2.8-0.9,4.1-0.2l0,0l-3.6-6.2L457.5,737.2z M460.9,747.5
		c-0.2-0.3-0.3-0.5-0.5-0.8c-1-1.1-2.7-1.4-4-0.6c-2,1.1-2.1,3.5-0.8,5.9c1.2,2.1,3.3,3.3,5.3,2.1c1.3-0.8,2-2.4,1.5-3.9
		c-0.1-0.3-0.2-0.6-0.4-0.9L460.9,747.5z"/>
	<path class="st7" d="M463.9,736.1c0.4,0.7,0.2,1.5-0.5,1.9c-0.7,0.4-1.5,0.2-1.9-0.5c-0.4-0.6-0.2-1.5,0.4-1.8c0,0,0,0,0.1,0
		C462.6,735.2,463.5,735.4,463.9,736.1C463.9,736,463.9,736,463.9,736.1z M469.6,750.7l-6.1-10.5l1.9-1.1l6.1,10.5L469.6,750.7z"/>
	<path class="st7" d="M481,736.9c2.2,3.9,0.5,7.1-2,8.6c-2.8,1.6-6.2,0.8-8.1-2.5c-2-3.5-0.9-6.9,2-8.6
		C475.8,732.7,479.1,733.8,481,736.9z M472.8,741.9c1.3,2.3,3.7,3.2,5.5,2.2s2.2-3.6,0.8-5.9c-1-1.8-3.2-3.5-5.5-2.2
		C471.3,737.3,471.6,739.9,472.8,741.9L472.8,741.9z"/>
	<path class="st7" d="M484.9,740.3c-0.4-0.7-0.1-1.6,0.7-2c0.7-0.4,1.6-0.1,2,0.7c0.4,0.7,0.1,1.6-0.6,2s-1.6,0.2-2-0.5
		C484.9,740.4,484.9,740.3,484.9,740.3z"/>
	<path class="st7" d="M497.7,733.8c-0.7,1-1.6,1.8-2.6,2.3c-3.1,1.8-6.5,0.9-8.3-2.3c-1.8-2.8-1-6.6,1.8-8.5
		c0.2-0.1,0.4-0.2,0.6-0.3c0.9-0.5,1.9-0.9,2.9-1l0.4,1.7c-0.9,0-1.7,0.3-2.5,0.8c-2.4,1.4-2.7,3.9-1.4,6.1c1.4,2.4,3.8,3,5.9,1.8
		c0.8-0.5,1.5-1.1,2-1.9L497.7,733.8z"/>
	<path class="st7" d="M506.4,722.2c2.3,3.9,0.6,7.1-2,8.6c-2.8,1.6-6.2,0.8-8.1-2.5c-2-3.5-0.9-6.9,2-8.6
		C501.2,718,504.5,719,506.4,722.2z M498.1,727.1c1.3,2.3,3.7,3.2,5.5,2.2c1.8-1,2.2-3.6,0.8-5.9c-1-1.8-3.2-3.5-5.5-2.2
		C496.6,722.5,497,725.1,498.1,727.1z"/>
	<path class="st7" d="M507.4,718.5c-0.6-1.1-1.2-2-1.7-2.8l1.7-1l1.1,1.6h0.1c-0.1-1.6,0.8-3.1,2.2-3.8c1.3-0.8,3-0.6,4.2,0.4l0,0
		c0-0.7,0.1-1.4,0.4-2c0.4-0.9,1-1.6,1.9-2.1c1.4-0.8,4-1.1,6.1,2.5l3.6,6.2l-1.8,1.1l-3.5-5.9c-1.2-2-2.6-2.8-4.1-1.9
		c-1,0.6-1.5,1.8-1.2,3c0.1,0.4,0.2,0.7,0.4,1l3.8,6.5l-1.9,1.1l-3.7-6.3c-1-1.7-2.4-2.5-3.9-1.6c-1.3,1-1.7,2.8-0.9,4.3l3.7,6.3
		l-1.9,1.1L507.4,718.5z"/>
	<path class="st7" d="M582.7,343.2c-3.8-2-8.1-4.2-11.8-6.2c-20.9-10.7-41.7-21.6-62.7-32.1c-17.3-8.7-35.3-15.5-54.5-19
		c-13.3-2.4-26.8-3-40.3-3.8c-11.2-0.6-22.5-1.6-33.7-2.2c-8.6-0.5-14.2-4.9-17.9-12.4c-1.6-3.3-3.3-6.7-6.4-9.1
		c-0.4-0.5-0.8-1-0.9-1.6c-1-2.3-3.4-3.7-5.9-3.3c-4.8,0.3-9.6,0.9-14.3,1.9c-7.3,1.7-14.5,4.1-21.8,6.1c-1.9,0.5-2.7,1.2-2.5,3.4
		c0.2,2.2,0.2,4.4,0.1,6.6l-19.5-6.3c-1.6-0.6-3.4,0-4.2,1.4l-12-1.2c0-2-0.1-4.1-0.1-6.4c-0.5-0.2-1-0.3-1.5-0.4
		c-11.4-1.4-21.7-5.9-32.1-10.4c-1.3-0.5-2.6-0.8-4-0.8c-20.4,0.1-40.7,0.3-61.1,0.5c-3.1,0-6.2,0.5-9.3,0.7c-0.5,0-1.1-0.1-1.6-0.2
		l-0.4,0.1c-2.9,1.5-4.1,3.8-4.5,7c-0.4,2-1,3.9-1.7,5.8l0.1,0.4c0.6,0.8,1.3,1.6,2,2.3c2,1.6,4.1,3.2,6.2,4.7
		c1.1,0.8,2.1,1.6,3.3,2.3c11.3,6.9,20.8,16.1,30.9,24.6c5.6,4.7,11.1,9.6,16.7,14.3c0.6,0.5,1.2,0.9,1.9,1.2
		c10.7,3.7,21.4,7.4,32.1,11c0.6,0.1,1.2,0,1.8-0.4c1.2-1,2.3-2.2,3.5-3.3c5,2.8,10.6,4.4,16.4,4.4c-0.5,3-1,5.8-1.6,8.7l14,5.2
		c-1.7,1.9-3.2,3.6-4.8,5.3c-0.7,0.5-0.9,1.6-0.4,2.3l0,0c5.5,9.3,11,18.5,18.1,26.7c1.8,2,3.9,3.8,6,5.4c1.1,0.9,5.4,0.6,7.1-0.4
		c0.7,0.1,1.3,0.1,2,0c3-0.6,5.9-1.4,8.7-2.5c8.2-3.6,15.4-2,22.2,3.3c8.6,6.7,17.3,13.3,25.8,20c10.1,7.9,20,16,30.9,22.8
		c15,9.1,31.2,16.1,48.1,20.8c12.7,3.6,25.4,6.9,38.1,10.1c0.5-0.2,1-0.1,1.4,0.1c1.7,0.7,3.6,0.4,5.4,0.7c1,0.2,1.9,0.6,2.8,1.2
		c1.5,0.3,3,0.5,4.5,1c0.8,0.2,1.5,0.5,2.3,0.8c3.8,0.7,7.5,1.8,11.1,3.1l13.4,3.4l0,0c3.1,0.9,6.3,1.4,9.2,2.7l0.1,0.1
		c0.2-0.5,0.5-1,0.7-1.5c0.4-1.3,0.7-2.6,0.9-3.9c0.1-0.4,0.4-0.8,0.8-1.1c0.2-1.7,0.3-3.4,0.4-5.2c0-2.3,1.8-4.6,2-6.9
		c0.3-3.6-1.9-6.3-4.4-8.7c-4.6-4.5-10.3-7.1-16.4-9c-12.7-3.9-25.4-7.6-38.1-11.3c-14.3-4.2-28.8-8.1-42-15.1
		c-10.9-5.8-21.7-11.9-32.5-18c-13.1-7.5-25.4-16.2-36.9-26c-4.7-4-10-7.2-15-10.7c-3.2-2.2-6.3-4.5-7.5-8.5
		c-0.9-2.8-3.2-4.5-5.6-5.9c-7.3-4-14.7-8.1-22.1-12c-4.4-2.3-9.1-4.3-13.6-6.5c-0.7-0.5-1.8-0.4-2.3,0.4l-0.1,0.1
		c-3.1,3.6-3.1,3.5-7.5,1.7l-3.6-1.5c4.8-4.2,8.1-9.9,9.2-16.1c2.3-0.3,4.1,2.2,6.5,0.9c0,0.2,0.1,0.5,0.1,0.8c0.1,4,0.1,4,4,5.1
		c9.9,2.7,19.8,5.4,29.8,7.9c2.9,0.7,5.8,1.2,8.8,1.3c2,0.1,4-0.2,5.9-1c2.8-1.3,5.9-1.8,9-1.5c6.7,0.8,13.5,2.1,20.2,2.1
		c28.4,0.2,55.8,6.7,83.2,13.3c11.8,2.9,22.8,8.1,33.8,13.2c13.2,6.1,26.3,12.4,39.5,18.5c3.5,1.5,7.1,2.8,10.7,3.9
		c1.2,0.4,2.5,0.7,3.8,0.9c0.5-0.3,1.2-0.3,1.7,0l0.4,0.2c0.4,0,0.7,0,1.1,0.1l2.1,0.1h0.2l1.3-0.1c1.1-0.3,2.2-0.6,3.3-1
		c1.4-0.5,2.6-1.3,3.6-2.2c0.8-0.6,2.5-1.1,2.9-2c0.1-0.2,0.3-0.4,0.4-0.6c0.2-1.1,0.5-2.3,0.8-3.4c0.2-0.6,0.6-1.1,1.1-1.4
		c1.8-1.6,3.8-6.4,4.4-9h-0.1L582.7,343.2z M217.7,277c-1.1,0.4-2.4,0.6-3.6,0.5c-1.4-0.1-2.4-0.5-3.7,0.2c-0.9,0.6-2.1,0.3-2.7-0.6
		c-0.1-0.1-0.1-0.3-0.2-0.4c-0.1-0.2-0.1-0.3-0.2-0.4H207c-0.7,0.1-1.5,0.1-2.2-0.1c-0.8-0.2-1.5-0.5-2.1-1c-0.5-0.4-0.6-0.7-1-0.7
		c-0.9,0.1-1.5,0.8-2.5,0.7c-0.8,0-1.5-0.4-2.1-0.9c-1-1-1.7-2.1-3.3-1.9c-0.9,0-1.6-0.5-1.9-1.3c-0.5-2.6-3.1-3.9-3.6-6.6
		c-0.3-1,0.3-2,1.2-2.4c0.9-0.3,2-0.3,2.9,0.1c0.8,0.3,0,0.6,1,0.1c0.5-0.3,1-0.5,1.5-0.6c1-0.2,2.1,0,3,0.5
		c0.6,0.3,1.5,1.2,2.1,0.9c0.5-0.2,1-0.1,1.5,0.1c0.7-0.1,1.4,0.2,1.7,0.9c0.8,1.4,2,2.5,3.6,1.7c0.9-0.6,2.1-0.3,2.7,0.6
		c0.1,0.1,0.1,0.3,0.2,0.4c0.6,1.6,3.3,1.7,4.7,2.1c1.9,0.5,3.8,1.2,5,2.9c1.1,1.4,0.9,3.5-0.6,4.6
		C218.4,276.7,218.1,276.9,217.7,277z"/>
	<path class="st10" d="M243.6,305.6c0.1-4.8,0.1-9.5,0.2-14.3L242,291c-0.1,4.9-0.1,9.6-0.2,14.5L243.6,305.6z M238.1,292
		c0,4,0.2,7.9,0.3,11.9c0,0,0.1,0.1,0.2,0.3l1.4-0.2c0-4.4-0.1-8.7-0.1-13l-0.9-0.2C238.7,291.2,238.1,291.6,238.1,292z M236,289.3
		l-1.8,0.3c0.2,4.1,0.5,8,0.7,12l1.8,0.2C236.5,297.6,236.3,293.6,236,289.3z M231.9,299.5c0.1-4,0.1-7.8,0.2-11.7l-0.7-0.2
		c-0.5,0.8-0.9,1.7-1.1,2.6c-0.2,3-0.1,5.9-0.1,9L231.9,299.5z M226.2,289.2c-0.1,2.9-0.3,5.8-0.4,8.9h1.8c0.1-3.4,0.2-6.7,0.3-10
		C226.8,287.6,226.3,288,226.2,289.2L226.2,289.2z M220.9,294.5c0.3-3.3,0.5-6.4,0.7-9.5l-0.7-0.1c-2.5,2.5-0.8,5.9-1.9,8.9
		L220.9,294.5z M223.1,287.7c-0.4,2.5-0.6,5-0.9,7.6l1.7,0.2c0.4-3,0.8-5.8,1.1-8.6l-0.8-0.3C223.8,287,223.1,287.3,223.1,287.7
		L223.1,287.7z M214.4,283.4l-0.8-0.4c-0.4,0.4-1.1,0.8-1.2,1.3c-0.4,1.7-0.5,3.5-0.9,5.2c-0.3,1.3,0.1,1.8,1.7,1.5L214.4,283.4z
		 M215.2,291.4c-0.1,0.3,0.7,0.8,1.1,1.1l0.5-0.1c0.3-2.8,0.5-5.7,0.8-8.5l-0.6-0.1C214.6,285.9,215.7,288.9,215.2,291.4
		L215.2,291.4z M209.1,289.2c0.3-2.3,0.6-4.5,0.9-6.6c-2.4-0.3-1.9,1.3-2,2.3s-0.3,2.2-0.5,3.5L209.1,289.2z M186.3,268.4l-1.8-0.1
		c-0.1,1.8-0.2,3.5-0.1,5.2c0,0.5,0.8,0.9,1.2,1.3l0.5-0.4L186.3,268.4z M183.6,267l-1.8,0.4c0,1.3-0.1,2.7-0.3,4
		c-0.2,1.3,0.3,1.6,1.8,1.4L183.6,267z M180.2,270.1c0.2-1.7,0.4-3.4,0.6-5.1c-2,0.1-2.3,0.6-2.2,5L180.2,270.1z M203.7,285.8
		l2.1,0.9c0.2-1.9,0.4-3.7,0.7-5.9C203.4,282,205.4,284.6,203.7,285.8L203.7,285.8z M348,303.2c-0.4,1.1-0.9,2-0.7,2.1
		c1.1,0.9,1.1,3.1,3.9,2.9L348,303.2z M347.2,308.6l0.8-0.6l-2.6-4.3l-1.6,1.5L347.2,308.6z M176.8,268.5c0.4-1.9,0.7-3.4,1-5.1
		c-2.6,0.5-1.9,2.6-2.8,3.9L176.8,268.5z M350.8,304.8c1.6,0.5,1,3.5,3.8,2.9C353.2,304,352.8,303.6,350.8,304.8L350.8,304.8z
		 M173.6,267c1.4-2.3,1.4-3.6-0.2-5.2C173.6,263.8,171.2,265.4,173.6,267z M169,264.4c2-0.4,2.1-1.7,2.2-2.8c0.1-0.5-0.4-1-0.7-1.6
		l-0.8,0.2C169.5,261.5,169.3,262.8,169,264.4z M202.8,284.4c0.2-1.4,0.4-2.6,0.6-4.3C200.9,281.6,200.8,283.2,202.8,284.4
		L202.8,284.4z M166.8,260.4c0.1-0.5-0.4-1.2-0.7-1.8l-0.6,0.1l-0.8,2.6l0.5,0.4C165.9,261.4,166.7,261,166.8,260.4L166.8,260.4z
		 M197.7,282.2c2.2,0.1,1.7-1.4,1.7-2.7C197.5,279.6,197.6,280.8,197.7,282.2L197.7,282.2z M342.7,304.9c-0.5,0.8-1.2,1.4-1.1,1.7
		c0.3,0.6,0.9,0.9,1.5,1.4l0.5-0.5L342.7,304.9z"/>
	<path class="st10" d="M568.7,354.1c-4.7,0-9.3-1-13.5-3c-11.3-5.1-22.6-10.3-33.8-15.7c-13.5-6.4-27-12.7-41-17.8
		c-12.6-4.5-25.6-6.8-38.8-8c-26-2.5-52-4.6-78-7c-3.9-0.3-7.7-0.6-11.5-1.1c-8.9-1.3-12.2-4.8-12.9-13.8
		c-0.6-5.7-0.1-11.4,1.5-16.9c1.7-5.4,5.2-9,11.2-10.1c-0.1-0.5-0.1-1-0.2-1.7c-5.1,0.6-8.9,3.1-11,7.6c-1.4,2.9-2.3,5.9-2.8,9
		c-0.9,5.2-0.9,10.5,0,15.7c0.9,5.3,3.7,9,8.8,10.7c2.7,0.8,5.4,1.5,8.1,2c1.4,2.9,2.1,3.4,3.8,2.7L357,304c2.3,0.1,2.9,2.2,4.4,3.3
		l1.4-0.8l-1.4-2c2.2-0.9,3.3,0.8,4.3,2.1c0.8,1,1.3,1,2.1,0.1l-1-1.9c3.2-0.1,3.3,4.6,7,4l-2.6-3.5l0.3-0.3l5.4,5.2
		c0.8-2.5-1.1-3.2-1.8-4.5c1.3-0.3,1.3-0.3,4.2,3.8l1.4-0.8c-0.3-0.5-0.5-1-0.7-1.4c-0.2-0.4-0.6-0.8-0.9-1.3
		c1.5-0.4,1.5-0.4,2.9,1.3c0.8,0.9,1.7,1.9,2.6,2.9c0.5-0.4,0.8-0.8,1.2-1.1l-2.4-2.9c1.7,0.1,3-0.3,4,1.3c1,1.3,2.2,2.5,3.4,3.6
		l0.9-1.5l-2.8-3.1c2.9,0,3.6,3.7,6.8,3.3L394,307c1.6-0.8,2.1,0.8,3,1.5s1.9,1.7,2.9,2.6l1.3-1.1l-2.5-2.6c2.8-0.9,3.9,1.3,5.4,2.6
		c0.6,0.4,1.3,0.8,2,1.1l0.4-0.5l-1.7-2.7c3.2-0.2,2-0.4,5.6,3.6c0.2,0,0.5-0.1,0.7-0.1c0.3-0.1,0.6-0.2,1-0.5l-1.9-2.7l2.5,0.2
		l3.3,4.3l1.4-1.2l-2.2-2.8c1.4-0.2,2.4,0,3.1,1.2c0.6,1,1.3,1.8,2.2,2.6c0.5,0.4,1.1,0.6,1.7,0.8c0-0.7-0.1-1.3-0.3-1.9
		c-0.5-0.8-1.1-1.6-1.8-2.3c1.5,0,2.5-0.2,3.3,1.4c0.5,1,1,3.1,3.4,2.1l-1.7-3l3.3,0.2c-0.2,2.1,1.4,3.8,3.2,3.2
		c-0.3-0.5-0.5-1-0.8-1.5s-0.5-0.9-0.9-1.5c3.3,0.1,3.5,2.9,4.9,4.8l1.6-0.5l-1.7-3.6c2.5-0.6,3.1,1.3,3.9,2.8
		c0.4,0.6,0.9,1.2,1.5,1.6l0.6-0.4l-1.1-3.5c1.3-0.5,2.8,0.2,3.3,1.5l0,0c0.4,1,0.9,2,1.4,2.9c0.5,0.7,1.1,1.4,1.7,2l0.7-0.4
		c-0.7-1.8-1.4-3.7-2.1-5.6l2.8,0.3c-0.1,2,1.8,5.3,3.4,5.4l-1.6-5.1l1.6,0.2c0.8,2.1,1.5,3.9,2.3,5.7c0.4,0.1,0.8,0.1,1.1-0.1
		c0.3-0.4,0.3-0.8,0.2-1.3c-0.5-1.2-1.1-2.4-1.7-3.8c1.2-0.1,2-0.3,2.4,1.1c0.4,1.3,1,2.6,1.7,3.7c0.3,0.5,0.9,0.7,1.3,1.1l0.6-0.3
		c-0.4-1.6-0.9-3.2-1.4-5l2,0.2l2.1,6.4l0.9-0.2c-0.2-1.9-0.5-3.8-0.7-5.8l2.6,0.5c0.6,2.4,0.2,5.1,2.3,6.8l0.9-0.3l-1.6-6l1.9,0.3
		c0.8,2.3,1.4,4.4,2.1,6.4c0.1,0.3,0.9,0.4,1.4,0.6l0.5-0.3c-0.5-1.9-1-3.8-1.6-6l2.2,0.6c0.5,2.4,1,4.6,1.6,7h1.8l-1.4-6.2
		c2.5,0.2,3.3,1.3,3.5,4.9c0.1,1,0,1.9,1.8,2.1c-0.1-1.8-0.3-3.6-0.5-5.9c0.8,0.7,1.6,1.1,1.9,1.8c0.6,1.3,0.8,2.8,1.3,4.2
		c0.2,0.7,0.6,1.4,1.1,2.4c1.3-2.6,0.2-4.5-0.3-6.5c2.8,0.5,2.8,0.5,3.6,7h1.8c-0.2-1.8-0.4-3.5-0.6-5.2c1.6,0.3,2.8,3.7,2.9,8.8
		c-2-0.8-4-1.6-6-2.4c-10.4-4.2-21.3-6.3-32.1-8.7c-15.9-3.5-31.9-6.8-48.1-8c-8-0.6-15.9-0.8-23.9-1.4c-4.4-0.3-8.8-1.1-13.2-1.6
		c-3-0.4-6.1,0.3-8.8,1.8c-2,1.1-4.1,1-6.3,0.8c-9.8-1.2-19.2-4.1-28.7-6.7c-3.2-0.9-6.3-1.9-9.5-2.7c-1-0.1-1.8-1-1.7-2v-0.1
		c0-11.6-0.1-23.3-0.3-34.9c0-1.2,0.3-1.9,1.5-2.1c1.2-0.2,2.4-0.8,3.6-1.1c0,0.1-0.1,0.2-0.1,0.4c0.8-0.4,1.7-0.6,2.6-0.6
		c0.4,0,0.8-0.1,1.1-0.2c-0.4,0-0.8-0.1-1.2-0.1c1.5-0.5,3.1-1.5,4.6-1.4l0.5,0.1c1.9-0.5,3.8-0.8,5.8-0.9l-2.2-0.5
		c4.2-0.9,8-1.8,11.7-2.5c2.2-0.4,4.5-0.5,6.8-0.8c2.7-0.3,5,0.3,6.6,2.7c2.1,3.1,4.4,6.2,6.6,9.3c1.3,1.9,2.4,3.9,3.6,5.8
		c2.3,4.1,6.4,6.9,11.1,7.6c7.1,1,14.2,1.8,21.3,2.3c15,1.1,30,1.5,44.9,2.9c21,1.9,41,8.1,59.8,17.4c24.2,12,48.1,24.4,72.1,36.7
		c2.8,1.4,5.7,2.7,8.8,4.1l0.7-1.2c-3.8-2-7.5-4-11.2-5.9c-21-10.7-41.8-21.6-62.7-32.1c-17.3-8.7-35.3-15.5-54.5-19
		c-13.3-2.4-26.8-3-40.3-3.8c-11.2-0.6-22.5-1.6-33.7-2.2c-8.6-0.5-14.2-4.9-17.9-12.4c-1.6-3.3-3.3-6.7-6.4-9.1
		c-0.4-0.5-0.8-1-0.9-1.6c-1-2.3-3.4-3.7-5.9-3.3c-4.8,0.3-9.6,0.9-14.3,1.9c-7.3,1.7-14.5,4.1-21.8,6.1c-1.9,0.5-2.7,1.2-2.5,3.4
		c0.2,2.2,0.2,4.4,0.1,6.6l-19.5-6.3c-1.7-0.7-3.6,0-4.4,1.6c-0.4,0.8-0.7,1.7-1,2.6l3.8,2.1l1-1.4l-2.6-1.7c1-2,2.5-1.9,4.2-1.1
		c0.7,0.3,1.4,0.5,2.1,0.8l0.4,0.2l3.2,0.7c-0.1,1,0,1.9,0.1,2.9c1.2,4,2.6,8.1,3.8,11.9c1.9,0.2,2.3-0.4,1.8-1.6
		c-1.5-4.1-3.1-8.3-4.8-12.8l3.2,1c-0.1,0.7-0.1,1.4,0,2.1c1.9,4.1,3.8,8.1,5.7,12.3l1.7-0.6l-6.4-13.5l3.4,1.1
		c-0.1,0.7-0.1,1.4,0.1,2.1c1.1,2.3,2.3,4.6,3.5,6.9c0.3,0.5,0.8,1.1,0.8,1.7c0.1,4.9,0.1,9.8,0.1,15l-2.4-1h0.1l-1.8-0.4
		c-0.3-2.1-0.5-3.9-0.8-6.2c-2.4,1.7-0.6,3.8-1.5,5.4l-1.7-0.5c-1.4,10.9-7.6,18.2-17.3,22.7c-9.9,4.7-19.4,3.6-28.9-1.8l-4.4,4.2
		c-30.5-18.7-61.6-36.7-90.8-57.6l2.4-6.5c0.6,0.1,1.1,0.2,1.6,0.4c7.2,2.4,14.3,4.8,21.5,7.1c1.2,0.4,1.6,1,1.5,2.1
		c0,0.1,0,0.3,0,0.4c0,2.7,0.1,2.9,2.7,3.5c0.1,1.5-0.6,3.6,1.5,4.1c0.9,0.2,2.1-0.6,3.2-0.9c0.4,1.1,0.6,3.1,1.6,3.7
		s2.8-0.2,4.4-0.4c1.8,2.9,1.8,2.9,5.1,0.7c0.9,1,1.6,2.5,2.7,2.9c0.8,0.3,2.1-1,3.5-1.7c1.8,1.9,3.9,1,5.9-0.7
		c1.1-0.9,2.3-0.5,3.6-0.1c8.2,3,16.5,5.9,24.7,8.8c0.2,0.1,0.5,0.1,0.7,0.2c2.8-3.4,2.8-3.7,0.6-5.2l1.9,0.3c1.9-4.1,5-7.5,8.8-9.8
		c6.6-3.9,13.8-4.4,21.1-3.7c0.6,0.1,1.2,0.2,1.9,0.2c1.2,0.1,1.2,0.1,1.5-1.7l-9.2-0.9c0-2-0.1-4.1-0.1-6.4c-0.5-0.2-1-0.3-1.5-0.4
		c-11.4-1.4-21.7-5.9-32.1-10.4c-1.3-0.5-2.6-0.8-4-0.8c-20.4,0.1-40.7,0.3-61.1,0.5c-3.1,0-6.2,0.5-9.3,0.7c-0.5,0-1.1-0.1-1.6-0.2
		l-0.4,0.1c-2.9,1.5-4.1,3.8-4.5,7c-0.4,2-1,3.9-1.7,5.8l0.1,0.4c0.6,0.8,1.3,1.6,2,2.3c2,1.6,4.1,3.2,6.2,4.7
		c1.1,0.8,2.1,1.6,3.3,2.3c11.3,6.9,20.8,16.1,30.9,24.6c5.6,4.7,11.1,9.6,16.7,14.3c0.6,0.5,1.2,0.9,1.9,1.2
		c10.7,3.7,21.4,7.4,32.1,11c0.6,0.1,1.2,0,1.8-0.4c1.2-1,2.3-2.2,3.5-3.3c5,2.8,10.6,4.4,16.4,4.4c-0.5,3-1,5.8-1.6,8.7l14,5.2
		c-1.7,1.9-3.2,3.6-4.8,5.3c-0.7,0.5-0.9,1.6-0.4,2.3l0,0c5.5,9.3,11,18.5,18.1,26.7c1.8,2,3.9,3.8,6,5.4c1.2,1.1,2.9,1.2,4.2,0.2
		c-0.5-0.4-1-0.8-1.5-1.2c-1.2-0.7-2.6-1-3.6-1.9c-5.9-5.1-9.9-11.7-14.5-18.4l1,0.2c-0.5-0.4-0.9-0.8-1.2-1.3
		c-0.1,0-0.2,0.1-0.3,0.2l-3-4.8l1.2,0.4c-0.4-0.5-0.7-1-1-1.5l-0.4,0.1c0,0.2-0.1,0.4-0.1,0.6l-1.6-2.7c-1.7-2.8-1.7-2.8,0.5-5.4
		c0.5-0.8,1.4-1.2,2.4-0.9c0.2-0.5,0.5-1.1,0.8-1.6l-0.4-0.1c0-0.2-0.1-0.3-0.1-0.5c0.4-0.1,0.8-0.4,1.2-0.6
		c0.4-0.6,0.9-1.3,1.4-1.9c0.2-0.7,0.7-1.2,1.3-1.5c0.6-0.7,1.3-1.3,1.9-2h-0.1c0.9-1.4,1.2-2,1.9-2.1c0.5-0.7,0.9-1.3,1.4-1.8l0,0
		l0.1-0.1l0.1-0.1l1.4-1.6l0.2,0.1c0.5-0.5,1.1-0.9,1.7-1.2l-0.6-0.2c2.7-3,5.3-5.9,7.9-8.8c0.5-0.7,1.4-0.9,2.1-0.4c0,0,0,0,0.1,0
		c9,4.5,18,8.8,27,13.3c3.2,1.7,6.4,3.7,9.3,5.9c1.3,0.8,2.3,2,2.8,3.4c1.4,4.3,4.4,7,8,9.3c9.4,5.9,17.9,13.2,26.6,20
		c12.2,9.5,25.7,17.3,39.2,24.8c8.1,4.5,16.2,9,24.6,12.9c12,5.6,24.9,9,37.6,12.8c13.3,3.9,26.6,7.9,39.9,12.1
		c5.4,1.6,10.2,4.5,14,8.6c3.2,3.5,3.8,7,1.7,10.4l-3.2-4.3l2.2-1.1l-0.3-1.7c-1.9,0.5-3.8,2.5-5.3-0.1c0.7-1.5,3.8,0.7,3.5-2.4
		c-2.4-0.8-4.5,1.4-6.9,0.6c0.6-1.8,4-0.6,3.1-3.8l-6.4,2.5c0.7-2.5,4-1.2,3.8-4.5l-7,3c0.8-1.9,3.7-1.2,3.1-4.1l-6.2,3
		c0.2-2.6,3.8-2.5,3.2-5.8l-6.2,4.8c0.1-2.6,3.8-2.5,2.6-5.8c-1.3,1.1-2.5,2.2-3.7,3.4c-0.9,1.1-1.8,1.2-3.1,0.4
		c0.7-0.7,1.5-1.4,2.3-2c1-0.6,1.4-1.2,0.3-2.5c-1.2,0.9-2.4,1.9-3.5,2.9c-0.8,1-2.2,1.1-3.1,0.4l-0.1-0.1l4.1-3.4
		c-0.1-0.3-0.2-0.8-0.5-1.8c-1.6,1.3-3.1,2.2-4.3,3.4c-1.6,1.5-1.5,1.5-3.5,0.5c0.6-1.8,3.5-1.9,3.2-5.1l-6.2,4.8
		c-0.5-2.5,3.3-2.9,1.6-5.8l-4.1,4.7l-1.8-0.5l2.8-4.9l-0.8-0.6l-4.2,4.8l-2.2-0.6l2.8-4.2l-1.4-1.1l-3.2,4.8l-1.5-0.4
		c-0.8-2,3.1-2.7,1-5.3l-3.4,4.6l-2.3-0.6c-0.1-2.1,3.1-2.7,2-5.2c-2.5,0.6-2.8,3.8-4.9,4.6l-0.6-0.6c0.5-1.2,1.1-2.5,1.7-3.9
		l-1.3-1.4l-2.4,4.9l-2.4-0.7c0.9-1.5,1.7-2.8,2.5-4.1l-1.3-1.1l-3,4.7l-2-0.5l2.6-4.1c-1.9-0.7-2.4-0.3-4.3,3.5l-2.6-0.7
		c0.5-0.8,0.8-1.4,1.3-2s1-1.2,1.5-1.9l-1.2-1.5l-3.5,4.7l-2.2-0.7c0.8-1.3,1.5-2.5,2.1-3.8c0.1-0.2-0.2-0.7-0.4-1
		c-2.4,0.3-2.1,3.7-4.8,4.2c0.8-2.1,1.4-3.7,2-5.6c-1.7,0.3-1.8,0.4-3.7,4.5l-1.7-0.4l2.5-4.2l-1.6-0.6c-1.3,1.3-1.4,3.6-4.1,4
		c0.9-1.8,1.6-3.3,2.6-5.1c-2.8,0.5-3.2,2.7-4.4,4.2l-2.1-0.8l2.8-3.7c-2-0.8-2-0.8-4.3,3.1l-1.8-0.6c-0.1-2.1,3.1-2.7,1.8-5.6
		c-1.2,1.5-2.3,2.6-3.1,3.8c-0.5,0.8-0.9,1.2-1.7,0.5l-1-0.6l-2.3-0.6l3-4.7c-3.5-0.6-3.4,3.3-5.6,3.6c-0.7-2.4,2.9-3.1,1.3-6
		l-3.6,4.8l-2.1-1c-0.3-2.3,3.2-2.8,1.9-5.9l-4.1,4.7l-1.4-0.5l2.9-5.4c-3,0.2-3.2,2.6-4.5,4.3l-1.7-0.8c0.6-2.5,3.7-3.3,3.7-6.3
		c-2.6,0.9-3.8,3.2-5.4,5l-1.4-0.8l3.5-4.8l-0.4-0.4c-2.3,0.4-3.3,2.6-4.9,4.1l-2-1.3c1-1,2.1-1.9,3.3-2.7c1.1-0.6,1.1-1.1,0.2-2.4
		c-1.4,1.1-2.8,2.3-4.2,3.3c-0.4,0.2-0.9,0.4-1.3,0.5c0-0.5-0.1-1.1,0.2-1.4c1-1.2,2.2-2.3,3.6-3.7c-3.5-0.9-4.3,2.4-6.2,3.7
		l-0.5-0.5c1.1-1.3,2.2-2.5,3.4-3.9l-1-1.4l-4.1,4.2l-2-1.3l3.6-4.1l-0.5-0.5c-2.1,0.1-3.2,1.9-4.4,3.3c-1.6-0.6-1.6-1-0.4-2.4
		c0.5-0.7,1-1.4,1.5-2.2l-0.8-0.7l-3.7,3.3l-1.5-0.9l2.2-2.8l-1.1-1.3l-2.7,2.9l-1-0.4l2.6-3.7l-1.3-1.1l-2.8,3.6l-2.4-1.6l2.1-3.6
		l-1.5-0.9l-2.1,3.3l-1.6-1c0.5-1.5,0.9-2.9,1.3-4.2l-0.7-0.4l-2.5,3.2l-1.7-1.2c0.6-0.9,1.2-1.8,1.8-2.7l-1.5-0.8l-1.8,2.4
		l-1.8-1.2l1.9-3.4c-2.5-1.2-2.2,1.6-3.7,2l-1.9-1.3l1.9-3.1l-1.3-1.2l-2.1,3l-1.3-1l1.9-2.3l-1.3-1.1l-2.1,2.3l-1.8-1.2
		c0.4-1.3,0.8-2.4,1.1-3.5l-0.7-0.3l-2.3,2.4l-1.8-1.3c0.4-1.3,0.8-2.5,1.2-3.8c-2.2-0.4-2,1.5-2.9,2.4l-1.4-1
		c0.7-1,1.2-1.9,1.9-2.9l-1.5-0.7c-0.6,0.8-1.2,1.5-1.8,2.4l-1.5-0.9l2.4-3.9c-2.9-1.2-2.5,2.1-4.3,2.4l-1.4-1l1.6-2.1l-1.7-1
		l-1.2,1.9l-1.6-1.1l1.3-2l-1.2-1.2c-0.5,0.6-1,1.2-1.5,2l-1.8-1.3l1.7-2.3c-1.7-0.8-1.7-0.8-3.1,1.1l-1.6-1l1.3-3.4l-1.7-0.5
		c-0.4,0.8-0.7,1.6-1,2.4c-2.5-1.1-2.5-1.2-1.7-3.4c0.2-0.5-0.2-1.2-0.4-2.3l-2.1,2.8l-1.5-1.1c0.5-0.9,1.9-1.7,0.1-2.7l-1.8,1.5
		l-1.7-1.2l1.8-3l-0.3-0.5c-1.3,0.4-2.5,1.1-3.3,2.2l-0.5-0.5c0.7-1.1,1.4-2.1,2.2-3.3l-1.5-0.9l-2.2,3l-2-1.4l2.6-2.8l-1.4-1
		l-2.7,2.7l-1.9-1.2l3.3-2.8c-0.7-1-1.1-1.7-2.2-0.5c-0.6,0.6-1.3,1.2-2.1,1.6c-0.6,0.2-1.2,0.4-1.9,0.4l-0.3-0.6
		c0.9-0.9,1.8-1.8,2.8-2.7c1-0.7,1.2-1.4,0-2.5c-1.3,1.2-2.6,2.5-3.9,3.7c-0.4,0.4-1,0.6-1.7,0.6c-3.9-1-8.1-0.1-11.2,2.4
		c-6,4.5-10.7,10.4-13.8,17.2c-2.8,6.2-1.9,12.2,2.1,16.5c1.1-0.4,1.4-0.9,0.6-2c-2.7-3.5-3.3-8.2-1.7-12.3c3-7.5,8.1-14,14.7-18.7
		c3-2.3,7.2-2.6,10.5-0.8c3.5,1.9,6.9,4,10.1,6.4c6.8,4.9,13.3,10.1,20.1,15c17.9,13.1,35.9,26.1,54,39
		c14.5,10.4,30.8,16.8,47.7,21.9c15.2,4.6,30.6,8.8,45.9,13.2c7.2,2.1,14.5,4.2,20.9,8.4c3.6,2.4,6.7,5.2,7.1,9.8
		c0.2,1.8-0.3,3.7-0.5,6l0.9,0.6c0.2-0.2,0.4-0.3,0.5-0.5c1.1-2.4,0.9-4.9,1-7.4c0-2.3,1.8-4.6,2-6.9c0.3-3.6-1.9-6.3-4.4-8.7
		c-4.6-4.5-10.3-7.1-16.4-9c-12.7-3.9-25.4-7.6-38.1-11.3c-14.3-4.2-28.8-8.1-42-15.1c-10.9-5.8-21.7-11.9-32.5-18
		c-13-7.5-25.4-16.3-36.8-26c-4.7-4-10-7.2-15-10.7c-3.2-2.2-6.3-4.5-7.5-8.5c-0.9-2.8-3.2-4.5-5.6-5.9c-7.3-4-14.7-8.1-22.1-12
		c-4.4-2.3-9.1-4.3-13.6-6.5c-0.7-0.5-1.8-0.4-2.3,0.4l-0.1,0.1c-3.1,3.6-3.1,3.5-7.5,1.7l-3.6-1.5c4.8-4.2,8.1-9.9,9.2-16.1
		c2.3-0.3,4.1,2.2,6.5,0.9c0,0.2,0.1,0.5,0.1,0.8c0.1,4,0.1,4,4,5.1c9.9,2.7,19.8,5.4,29.8,7.9c2.9,0.7,5.8,1.2,8.8,1.3
		c2,0.1,4-0.2,5.9-1c2.8-1.3,5.9-1.8,9-1.5c6.7,0.8,13.5,2.1,20.2,2.1c28.4,0.2,55.8,6.7,83.2,13.3c11.8,2.9,22.8,8.1,33.8,13.2
		c13.2,6.1,26.3,12.4,39.5,18.5c3.5,1.5,7.1,2.8,10.7,3.9c1.9,0.5,3.8,0.9,5.7,1.2c0.1,0.1,0.1,0.2,0.2,0.2c0.7,0.1,1.4,0.1,2.2,0.1
		l-0.3-0.2c4.1-0.1,7.7-0.4,10.7-2.9c0.1-0.4,0.4-0.7,0.7-0.9c0,0,0.4-0.3,0.5-0.3c0.1-0.1,0.3-0.3,0.4-0.4c0.2-0.2,0.3-0.4,0.4-0.5
		l0.1-0.1l0.2-0.3c0,0,0-0.1,0.1-0.1c0.3-1.3,0.6-2.6,1-3.9c0.2-0.6,0.6-1.1,1.1-1.4c1.9-1.6,3.2-3.8,3.8-6.2l-1.6-0.4
		C578.3,351.9,574.2,354,568.7,354.1z M309.9,278.6c-1-2.1-1.9-3.9-2.9-6.1C310.5,273.4,310.9,274.3,309.9,278.6z M219.7,274.6
		c-1,0.7-2.1,1.4-3.2,1.9c-0.8,0.3-1.7,0.3-2.5-0.1c-1.4-1-2.4-0.8-3.4,0.4c-0.3,0.4-0.6,0.7-1,1c-1.9-3.6-2.4-3.8-5.5-1.7
		c-0.9-0.9-1.7-2.2-2.7-2.4c-1-0.2-2.2,0.9-3.4,1.5c-0.4-1.4-0.6-3-1.4-4c-1.3-1.5-2.6-0.1-3.7,0.9c-0.1-0.1-0.2-0.2-0.3-0.3
		c-0.1-0.1-0.1-0.2-0.1-0.4c0.4-1.9,0-3.4-2.2-3.9c-0.2,0-0.5-0.6-0.5-0.9c0.2-1.3,0.2-2.4-1.3-2.9c0.7-0.5,1.4-0.8,2.1-1.1
		c0.6-0.2,1.2-0.1,1.7,0.1c2.1,1.8,2.2,1.8,4.2,0c2.4,2.6,3.1,2.7,5.6,1c0.5,0.7,1.1,1.4,1.7,1.9c0.8,0.5,1.9,1.2,2.6,1
		c1.7-0.6,2.1,0.2,3,1.3c0.5,0.7,2,1.5,2.5,1.2c1.3-0.8,1.7-0.2,2.4,0.7c0.2,0.3,0.7,0.4,1.1,0.5c1.5,0.5,3,1,4.4,1.5
		c-0.1,0.5-0.2,0.9-0.2,1.4C219.7,273.8,219.7,274.2,219.7,274.6L219.7,274.6z M242.8,251l6.7,2.8l-0.4,0.7l-6.6-2.8L242.8,251z
		 M236.7,248.9l4.5,3.5c-0.1,0.2-0.2,0.3-0.4,0.5l-4.5-3.5L236.7,248.9z M231.8,248.9l4.5,2.7l-0.4,0.7l-4.6-2.5L231.8,248.9z
		 M224.7,250.4l-6.6-0.8C221.4,248.9,223.1,249.1,224.7,250.4L224.7,250.4z M165.1,253.2c0.2-2.4,1.6-3.2,3.9-3.2
		c8.8-0.1,17.6-0.6,26.4-0.3c24.4,1,48.4,4.7,72.2,9.6c4.9,1,4.9,1,4.8,6.3c-10.5,0.9-19.1,4.9-24,14.9c-9.2-3.3-18.3-6.7-27.4-9.8
		c-2.4-0.9-4.5-1.8-5.2-4.6c-0.2-0.5-0.5-1-0.9-1.4l-2.9,2.4c-0.2-0.5-0.4-0.9-0.5-1.2c-1.1-3.1-1.9-3.4-4.5-1.5
		c-1.1,0.8-1.6,0.5-1.8-0.7c-0.1-0.5-0.2-1-0.3-1.5c-0.7-1.9-2.1-2.1-3.5-0.7c-0.5,0.5-1,1-1.1,1.2c-1.1-1.2-1.8-2.8-3-3.1
		c-0.7-0.2-2,1.3-3,2.1c-2-1.8-3.3-2.1-4.7-0.6c-1,1.1-1.8,0.9-3,0.5c-6.7-2.2-13.4-4.4-20-6.7c-0.6-0.2-1.1-0.4-1.7-0.7
		C164.9,254,165.1,253.6,165.1,253.2L165.1,253.2z M203.2,295.1l-0.6,0.2c-0.4-1-0.8-2-1.2-3C204,292.5,203.2,293.9,203.2,295.1
		L203.2,295.1z M206.9,298.5c-2.1-0.8-2.3-2.4-1.6-4.4C207.8,295.3,207.8,295.5,206.9,298.5L206.9,298.5z M209.2,296.4
		c2.4,1.4,0.5,3.4,1.5,5.1C207.6,300.2,209.3,298.2,209.2,296.4L209.2,296.4z M214.2,304.6c-3.4-1.3-1.5-4-2.1-6.4l3.1,1.9
		L214.2,304.6z M217.3,308c-0.6-1-1.5-1.8-1.5-2.6c0.2-1.4,0.5-2.8,1-4.1C218.6,302.1,218.8,303.4,217.3,308z M221,309.7l-1.8-0.6
		c0.3-2,0.6-3.9,1-6.3c0.8,1,1.6,1.5,1.6,2.1C221.7,306.5,221.4,308.1,221,309.7L221,309.7z M224.6,311l-1.8-0.7
		c0.2-1.7,0.4-3.2,0.7-4.8C225.7,306.3,225.9,307.9,224.6,311L224.6,311z M227.7,311.9c-1.1-0.6-1.1-0.6-0.2-4.5
		C228.7,309,227.9,310.4,227.7,311.9L227.7,311.9z M231,313.1l-1.5-0.5c0.1-0.7,0.2-1.3,0.3-1.8l0.3-1.6
		C231.5,310.1,231.9,312.1,231,313.1L231,313.1z M242.6,317.1l-7.2-2.5c0.1-0.8,0.1-1.4,0.2-2.1l7.2,4.3L242.6,317.1z M273.3,330.2
		c0.5-2.4,0.8-4.6,1.3-6.8c0.1-0.4,0.6-0.7,0.9-1l0.5,0.3c0,2.1,0,4.1-0.2,6.2c-0.3,0.9,0.1,1.8,0.8,2.3L273.3,330.2z M276.8,331.2
		L276.8,331.2c0.4-0.6,0.6-1.3,0.8-2c0.1-2,0.1-4,0.2-6c0-0.5,0.5-1,0.7-1.5l0.6,0.2c0.1,3.4,0.2,6.8,0.4,10.5L276.8,331.2z
		 M283.7,334.5c-1-1-2.2-1.6-2.3-2.4c-0.3-2.8-0.1-5.7-0.4-8.5c-0.2-2.4,1-2.9,2.9-3C283.8,325,283.7,329.4,283.7,334.5L283.7,334.5
		z M287.9,332.4c0,0.9-0.8,1.8-1.2,2.7l-0.8-0.2c-0.1-0.6-0.2-1.1-0.2-1.7c0-3.9,0.1-7.8,0.1-11.7c0-1.6,0.4-2.5,2-2.8
		C287.8,323.4,288,327.9,287.9,332.4L287.9,332.4z M292,327.4c-0.1,1.3-1,2.5-1.5,3.8l-0.9-0.2c0.1-3.8,0.3-7.6,0.1-11.4
		c-0.1-2.2,1-2.9,3-3.8C292.5,319.8,292.4,323.6,292,327.4L292,327.4z M298.4,317.4l2.9,1.2l-3.4,3.9
		C298.1,320.5,298.2,319,298.4,317.4L298.4,317.4z M296.5,318.5c-0.3,1.7-0.4,3.4-0.7,5c-0.3,1-0.7,2-1.2,2.9l-0.6-0.2
		c0.2-3.4,0.3-6.8,0.5-10.4C296.3,316.1,296.8,316.9,296.5,318.5L296.5,318.5z M492.5,332.2l-1.2-8.2c1.9,0.4,2.7,2.7,3.2,9
		L492.5,332.2z M496.6,334c-0.6-3-1.1-5.7-1.8-9.1c1.5,0.9,3.1,1.2,3.4,2.1c0.8,2.8,1.5,5.7,2,8.6L496.6,334z M502,336.4
		c-0.5-3-0.9-5.6-1.4-8.9c3.8,2.5,2,6.8,4,9.5c1.3,0,1.6-0.6,1.2-1.8c-0.5-1.8-0.8-3.6-1.4-6c1.4,0.9,2.6,1.3,3,2.1
		c0.6,1.4,1.1,3,1.3,4.5c0.2,1.3,0.3,2.6,0.3,3.9L502,336.4z M511.2,340.5c-0.5-3.1-0.9-5.8-1.4-8.9c1,0.8,2.4,1.2,2.6,2
		c0.8,2.7,1.2,5.5,1.7,8.6L511.2,340.5z M515.3,342.7c1.2-3.1-1-5.6-0.4-8.5c0.7,0.5,1.3,1.1,1.6,1.9c0.7,2.5,1.2,5.1,1.8,7.7
		L515.3,342.7z M518.3,343.9l1.5-0.7c-0.4-2.4-0.8-4.6-1.3-7.2c1.5,1,3.3,1.5,3.7,2.5c0.9,2.9,1.6,5.9,2.1,8.9L518.3,343.9z
		 M529,349.3l-3-1.4c0.4-3.2-1.4-5.8-1.3-8.6c2.4,0.8,2.5,0.8,3.1,2.9c0.6,2.1,1.3,4.6,1.9,6.9L529,349.3z M530.9,350.2
		c0.7-3.1-0.6-5.8-1.4-9l2.8,1.8c0.7,2.9,1.4,5.7,2.2,8.9L530.9,350.2z M537.1,353.1c-0.3-0.1-0.5-0.4-0.6-0.7
		c-0.8-2.8-1.5-5.6-2.2-8.5c1.7,0.5,3,1,3.3,2.9c0.4,2,0.9,4,1.6,6c0.2,0.5,0.9,0.9,1.4,1.3l0.7-0.5l-2.3-7l0.5-0.4
		c0.9,0.6,2.3,0.9,2.7,1.8c1.1,2.7,1.9,5.5,3,8.8C542.2,355.5,539.7,354.3,537.1,353.1L537.1,353.1z M546.1,357.1
		c1.5-3-1-5.5-1.2-8.3l3.1,1.4c-0.8,3.1,1.5,5.4,1.6,8.3L546.1,357.1z M551.9,359.3l-2.6-8.1c0.2-0.1,0.3-0.3,0.5-0.4
		c0.8,0.5,1.8,0.8,2.2,1.4c1.4,1.9,2.5,4,3.8,6c0.5,0.8,1,1.6,1.8,2.8L551.9,359.3z M558.3,358.9c-0.9-2.1-2.6-3.8-4-5.8
		c5.5,0.4,7,4.8,9.6,8.5C561.2,361.9,559.4,361.5,558.3,358.9L558.3,358.9z M565.7,361c-1.3-1.9-2.6-3.8-3.7-5.8
		c4.1,0,4.4,3.8,6.4,6C567.4,361.4,566.1,361.6,565.7,361L565.7,361z M570.5,360.6l-3.2-4.5c2-0.2,2-0.2,5.1,3.4L570.5,360.6z
		 M573.8,358.2l-2.1-2.4l3.6-1.2L573.8,358.2z"/>
	<path class="st10" d="M537.3,463.3c0.2,0.1,0.3,0.2,0.5,0.3c0.3-0.5,0.6-1,0.9-1.5c-1.3-0.8-2.7-1.4-4.1-1.8
		c-26.5-6.9-53.1-13.5-79.6-20.3c-28.3-7.2-54.7-20.7-77.1-39.4c-10.2-8.5-20.8-16.4-31.3-24.5c-1.8-1.4-3.9-2.6-5.9-3.8
		c-4.6-3-10.3-3.7-15.5-1.8c-3.2,1-6.4,2.1-9.6,3.1c-1.4,0.3-2.8,0.5-4.3,0.6c-0.6,0.2-1.1,0.4-1.7,0.7c0,0.3,0.1,0.5,0.1,0.8
		c1.2,0.2,2.3,0.3,3.5,0.2c3-0.6,5.9-1.4,8.7-2.5c8.2-3.6,15.4-2,22.2,3.3c8.6,6.7,17.3,13.3,25.8,20c10.1,7.9,20,16,30.9,22.8
		c15,9.1,31.2,16.1,48.1,20.8c14.1,4,28.3,7.6,42.5,11.2c0.4,0.1,0.9,0.3,1.3,0.5c0.9,0.2,1.8,0.4,2.8,0.6c0.6,0.1,1.2,0.3,1.7,0.5
		h0.4l-0.1-0.1l9.3,2.3c0.2,0,0.3,0,0.5,0c1.3,0.3,2.5,0.6,3.7,1.2c0.2,0,0.3,0,0.5,0l0,0h0.1c0.2,0,0.3,0.1,0.5,0.1l16,4.1l0,0
		C531.2,461.5,534.4,462,537.3,463.3z"/>
	<path class="st10" d="M293.9,268.4l-0.4-0.2l-1.1,1.2l0.7,2.7l-0.3,0.2l-1.9-1.7l-1.1,1.2c5.5,6,9.4,12.6,9.7,21l1.5,0.2
		c0.2-0.2,0.3-0.3,0.3-0.4c-0.3-5.2-1.8-10.3-4.5-14.8c-0.8-1.7-1.5-3.5-2-5.4C294.5,271.1,294.3,269.8,293.9,268.4z"/>
	<path class="st10" d="M241.8,305.6l1.8,0.1c0.1-4.8,0.1-9.5,0.2-14.3L242,291C241.9,295.9,241.8,300.6,241.8,305.6z"/>
	<path class="st10" d="M239,290.8c-0.3,0.4-0.9,0.8-0.9,1.2c0,4,0.2,7.9,0.3,11.9c0,0,0.1,0.1,0.2,0.3l1.4-0.2c0-4.4-0.1-8.7-0.1-13
		L239,290.8z"/>
	<path class="st10" d="M236.8,301.9c-0.3-4.3-0.5-8.3-0.8-12.5l-1.8,0.3c0.2,4.1,0.5,8,0.7,12L236.8,301.9z"/>
	<path class="st10" d="M230.2,299.2l1.7,0.3c0.1-4,0.1-7.8,0.2-11.7l-0.7-0.2c-0.5,0.8-0.9,1.7-1.1,2.6
		C230.1,293.2,230.2,296.2,230.2,299.2z"/>
	<path class="st10" d="M228,288c-1.2-0.4-1.7,0-1.8,1.2c-0.1,2.9-0.3,5.8-0.4,8.9h1.8C227.8,294.7,227.9,291.4,228,288z"/>
	<path class="st10" d="M219,293.8l1.9,0.7c0.3-3.3,0.5-6.4,0.7-9.5l-0.7-0.1C218.4,287.3,220.1,290.8,219,293.8z"/>
	<path class="st10" d="M224.2,286.6c-0.4,0.4-1.1,0.7-1.2,1.1c-0.4,2.5-0.6,5-0.9,7.6l1.7,0.2c0.4-3,0.8-5.8,1.1-8.6L224.2,286.6z"
		/>
	<path class="st10" d="M213.3,291l1.1-7.6l-0.8-0.4c-0.4,0.4-1.1,0.8-1.2,1.3c-0.4,1.7-0.5,3.5-0.9,5.2
		C211.3,290.7,211.7,291.2,213.3,291z"/>
	<path class="st10" d="M217,283.8c-2.4,2.1-1.3,5-1.8,7.6c-0.1,0.3,0.7,0.8,1.1,1.1l0.5-0.1c0.3-2.8,0.5-5.7,0.8-8.5L217,283.8z"/>
	<path class="st10" d="M207.4,288.4l1.7,0.8c0.3-2.3,0.6-4.5,0.9-6.6c-2.4-0.3-1.9,1.3-2,2.3S207.6,287.1,207.4,288.4z"/>
	<path class="st10" d="M186.1,274.4l0.2-6l-1.8-0.1c-0.1,1.8-0.2,3.5-0.1,5.2c0,0.5,0.8,0.9,1.2,1.3L186.1,274.4z"/>
	<path class="st10" d="M183.3,272.9l0.3-5.8l-1.8,0.4c0,1.3-0.1,2.7-0.3,4C181.4,272.7,181.9,273,183.3,272.9z"/>
	<path class="st10" d="M308,296.8l1.8-0.2c-0.3-1.9-0.7-3.7-1-5.5H308C306.2,292.8,308.2,294.9,308,296.8L308,296.8z"/>
	<path class="st10" d="M443.4,411.9l1,0.6c1-1.7,2.5-3.1,2.5-5.3C444.9,407.8,443.5,409.7,443.4,411.9z"/>
	<path class="st10" d="M178.6,270l1.6,0.1c0.2-1.7,0.4-3.4,0.6-5.1C178.8,265.1,178.6,265.7,178.6,270z"/>
	<path class="st10" d="M206.6,280.9c-3.2,1.1-1.2,3.6-2.8,4.9l2.1,0.9C206.1,284.9,206.3,283.1,206.6,280.9z"/>
	<path class="st10" d="M351.2,308.2l-3.2-5c-0.4,1.1-0.9,2-0.7,2.1C348.3,306.2,348.4,308.4,351.2,308.2z"/>
	<path class="st10" d="M343.8,305.2l3.4,3.5l0.8-0.6l-2.6-4.3L343.8,305.2z"/>
	<path class="st10" d="M175,267.3l1.8,1.2c0.4-1.9,0.7-3.4,1-5.1C175.2,263.9,175.9,266,175,267.3z"/>
	<path class="st10" d="M354.6,307.7c-1.4-3.8-1.9-4.1-3.8-2.9C352.4,305.4,351.8,308.3,354.6,307.7z"/>
	<path class="st10" d="M173.4,261.8c0.1,2-2.2,3.6,0.2,5.2C175,264.8,175,263.4,173.4,261.8z"/>
	<path class="st10" d="M169.8,260.2c-0.2,1.3-0.5,2.6-0.8,4.2c2-0.4,2.1-1.7,2.2-2.8c0.1-0.5-0.4-1-0.7-1.6L169.8,260.2z"/>
	<path class="st10" d="M203.4,280.1c-2.5,1.5-2.7,3-0.6,4.3C203,283.1,203.2,281.9,203.4,280.1z"/>
	<path class="st10" d="M165.4,261.8c0.5-0.4,1.3-0.8,1.5-1.3c0.2-0.5-0.4-1.2-0.7-1.8l-0.6,0.1l-0.8,2.6L165.4,261.8z"/>
	<path class="st10" d="M199.5,279.5c-2,0-1.9,1.3-1.7,2.7C200,282.3,199.5,280.8,199.5,279.5z"/>
	<path class="st10" d="M343.6,307.5l-0.8-2.6c-0.5,0.8-1.2,1.4-1.1,1.7c0.3,0.6,0.9,0.9,1.5,1.4L343.6,307.5z"/>
	<path class="st10" d="M246.2,258.4l-1.4,0.5c0.5,3.5,0.9,7,1.4,10.5c1.3,0,1.9-0.3,1.6-1.7c-0.4-2.3-0.5-4.6-0.8-6.9
		C246.8,259.9,246.5,259.1,246.2,258.4z"/>
	<path class="st10" d="M249.8,269.9l1.8-0.3c-0.6-3.2-1.2-6.3-1.7-9.4c-0.2-1.3-0.9-1.4-1.8-0.6C248.6,263,249.2,266.3,249.8,269.9z
		"/>
	<path class="st10" d="M255,269.9c-0.2-1.6-0.3-3.3-0.6-4.9c-0.2-1.3-0.9-2.5-0.9-3.9s-0.8-1.3-2.1-1.3c0.3,1.5,0.6,2.9,0.9,4.3
		c0.3,1.6,0.4,3.2,0.8,4.8c0.1,0.5,0.7,0.9,1,1.4L255,269.9z"/>
	<path class="st10" d="M238.9,258.3l-1.8,0.6c0.3,3.3,0.6,6.5,1,9.9c1,0.4,1.7,0.4,1.6-1.1C239.5,264.7,239.2,261.7,238.9,258.3z"/>
	<path class="st10" d="M243.3,268.5c0.4-0.4,1.1-0.8,1-1.2c-0.4-2.9-1-5.7-1.6-8.5c0-0.2-0.3-0.4-0.6-0.9c-0.4,0.7-1,1.2-1,1.7
		c0.4,2.9,1,5.8,1.5,8.7L243.3,268.5z"/>
	<path class="st10" d="M234.6,267.5l1.8-0.4c-0.2-3.1-0.4-6.1-0.6-9.1l-0.5-0.3c-0.4,0.5-1.1,1-1.1,1.5
		C234.3,261.9,234.5,264.6,234.6,267.5z"/>
	<path class="st10" d="M231.7,266.5h1.8c-0.2-2.9-0.4-5.7-0.7-8.9l-1.7,0.7C231.3,261.1,231.5,263.7,231.7,266.5z"/>
	<path class="st10" d="M228.7,265.1h1.4c0.1-0.2,0.2-0.3,0.2-0.4c-0.2-2.1-0.5-4.2-0.8-6.3c-0.1-0.5-0.8-0.8-1.2-1.2l-0.6,0.4
		L228.7,265.1z"/>
	<path class="st10" d="M226.3,257.6c-0.4,0.5-0.6,1.1-0.8,1.7c-0.1,1.5,0.1,3.1,0.1,4.9l1.7,0.7c0-2.6-0.1-4.9-0.1-7.1L226.3,257.6z
		"/>
	<path class="st10" d="M224.4,262.9c-0.4-1.9-0.7-3.8-1.2-5.6c-0.1-0.4-1-0.5-1.8-1c0.4,2.4,0.6,4.2,1,6c0.1,0.5,0.8,0.8,1.3,1.1
		L224.4,262.9z"/>
	<path class="st10" d="M217.9,257.4c1.3,1.2-0.4,3.8,2.6,4.7c-0.1-1.6-0.3-3.2-0.6-4.7c-0.1-0.3-1-0.5-1.5-0.7L217.9,257.4z"/>
	<path class="st10" d="M215.4,255.7c-0.4,0.5-1.1,1.1-1,1.3c0.6,1.1-0.5,3.2,2.1,3.6c-0.1-1.6-0.3-3.1-0.4-4.6L215.4,255.7z"/>
	<path class="st10" d="M192,256.8c1.4,0.2,1.9-0.3,1.6-1.4c-0.3-0.9,0.3-2.7-2-2.1L192,256.8z"/>
	<path class="st10" d="M188.6,256.6l2.1,0.1c0-1.3,0-2.4-0.1-3.7C187.7,253.2,189.5,255.4,188.6,256.6z"/>
	<path class="st10" d="M187.7,255.5c-0.5-1.2,0.4-3-2-2.9c0,1,0.1,1.9,0.1,3.1L187.7,255.5z"/>
	<path class="st10" d="M183.6,255c-0.1-1-0.3-1.9-0.4-2.9l-0.8-0.1c-0.3,0.8-0.5,1.6-0.6,2.4c0,0.4,0.8,0.7,1.3,1L183.6,255z"/>
	<path class="st10" d="M211,256.6l0.6,2.3c1.1,0.1,1.8-0.1,1.5-1.4C212.8,256.2,212.3,255.9,211,256.6z"/>
	<path class="st10" d="M180.4,252.1l-2.1,0.7l1.5,2.3l0.7-0.3v-2.7H180.4z"/>
</g>
</svg>
